<svg xmlns="http://www.w3.org/2000/svg" width="283.244" height="46.28" viewBox="0 0 283.244 46.28">
  <path id="Path_215" data-name="Path 215" d="M1.144,0V-.52L2.236-.936A2.368,2.368,0,0,0,3.614-1.95,3.858,3.858,0,0,0,3.9-3.588V-30.732A3.747,3.747,0,0,0,3.588-32.4a2.238,2.238,0,0,0-1.352-.988L1.144-33.8v-.52H14.4v.52l-.936.416a2.422,2.422,0,0,0-1.352,1.014,3.441,3.441,0,0,0-.364,1.69V-1.04H19.76a3.8,3.8,0,0,0,2.834-.936,9.984,9.984,0,0,0,1.742-2.7l2.028-4.368h.52L26.416,0ZM42.276.78A13.774,13.774,0,0,1,35.412-.858a11.2,11.2,0,0,1-4.5-4.654,14.987,14.987,0,0,1-1.586-7.072,13.939,13.939,0,0,1,1.69-7.02,11.747,11.747,0,0,1,4.628-4.576,13.553,13.553,0,0,1,6.63-1.612,13.581,13.581,0,0,1,6.6,1.586,11.616,11.616,0,0,1,4.6,4.55,14.049,14.049,0,0,1,1.69,7.072,14.949,14.949,0,0,1-1.586,7.1A11.282,11.282,0,0,1,49.114-.858,13.628,13.628,0,0,1,42.276.78Zm0-1.04A4.047,4.047,0,0,0,45.188-1.3a6.8,6.8,0,0,0,1.586-3.692,43.4,43.4,0,0,0,.494-7.488,43.8,43.8,0,0,0-.494-7.54,6.8,6.8,0,0,0-1.586-3.692,4.047,4.047,0,0,0-2.912-1.04,4.141,4.141,0,0,0-2.938,1.04,6.673,6.673,0,0,0-1.612,3.692,43.8,43.8,0,0,0-.494,7.54,43.4,43.4,0,0,0,.494,7.488A6.673,6.673,0,0,0,39.338-1.3,4.141,4.141,0,0,0,42.276-.26ZM57.46,0V-.52l.78-.208a2.418,2.418,0,0,0,1.43-.936,3,3,0,0,0,.39-1.612V-19.552a2.931,2.931,0,0,0-.39-1.69A2.212,2.212,0,0,0,58.24-22l-.78-.208v-.52L66.4-25.74l.52.52.468,4.472v.416a10.923,10.923,0,0,1,1.9-2.678,10.644,10.644,0,0,1,2.6-2,5.882,5.882,0,0,1,2.834-.78A3.97,3.97,0,0,1,77.74-24.7a3.837,3.837,0,0,1,1.04,2.756,3.583,3.583,0,0,1-1.014,2.73,3.392,3.392,0,0,1-2.418.962A4.789,4.789,0,0,1,71.5-20.436l-.1-.1a1.729,1.729,0,0,0-1.2-.806,1.382,1.382,0,0,0-1.248.65,3.923,3.923,0,0,0-.858,1.118,13.492,13.492,0,0,0-.65,1.482V-3.588a2.407,2.407,0,0,0,1.82,2.6l1.664.468V0ZM92.612-25.792a11.381,11.381,0,0,1,5.772,1.378,9.4,9.4,0,0,1,3.666,3.744,11.171,11.171,0,0,1,1.274,5.382q0,.572-.052,1.17a4.65,4.65,0,0,1-.208,1.066h-15.5q.052,5.616,2,8.086a6.939,6.939,0,0,0,5.8,2.47,9.193,9.193,0,0,0,4.212-.832A10.3,10.3,0,0,0,102.6-5.772l.52.468a11.959,11.959,0,0,1-4.29,4.472A12.225,12.225,0,0,1,92.4.78,13.283,13.283,0,0,1,85.852-.806a11.2,11.2,0,0,1-4.472-4.55,14.6,14.6,0,0,1-1.612-7.072,13.4,13.4,0,0,1,1.872-7.254,12.592,12.592,0,0,1,4.81-4.55A12.963,12.963,0,0,1,92.612-25.792Zm-.156,1.04a3.831,3.831,0,0,0-2.574.91,6.222,6.222,0,0,0-1.664,3.224,28.922,28.922,0,0,0-.65,6.526H96.46q.52-5.668-.416-8.164A3.532,3.532,0,0,0,92.456-24.752ZM105.924,0V-.52l.728-.208a2.191,2.191,0,0,0,1.378-.884,3.446,3.446,0,0,0,.442-1.664V-19.552a3.1,3.1,0,0,0-.364-1.69A2.1,2.1,0,0,0,106.7-22l-.78-.208v-.52l8.892-3.016.52.52.416,3.536a16.868,16.868,0,0,1,3.926-2.912,9.543,9.543,0,0,1,4.6-1.2,7.065,7.065,0,0,1,4,1.014,6.2,6.2,0,0,1,2.288,3.146,16.8,16.8,0,0,1,4.394-3.042,10.737,10.737,0,0,1,4.6-1.118q3.692,0,5.434,1.768t1.742,5.564V-3.224a2.381,2.381,0,0,0,1.872,2.548l.572.156V0H137.176V-.52l.52-.156a2.39,2.39,0,0,0,1.378-.936,3.111,3.111,0,0,0,.39-1.664V-19.188a4.331,4.331,0,0,0-.78-2.99,3.348,3.348,0,0,0-2.5-.806,6.115,6.115,0,0,0-2.626.6,12.235,12.235,0,0,0-2.678,1.794,8.278,8.278,0,0,1,.338,1.82q.078.988.078,2.08V-3.224a2.445,2.445,0,0,0,1.872,2.548l.468.156V0H121.576V-.52l.728-.208a2.447,2.447,0,0,0,1.378-.91,2.974,2.974,0,0,0,.39-1.638v-15.86a4.579,4.579,0,0,0-.754-2.964,3.23,3.23,0,0,0-2.574-.884,5.308,5.308,0,0,0-2.392.6,11.93,11.93,0,0,0-2.5,1.742v17.42a2.373,2.373,0,0,0,1.82,2.548l.468.156V0ZM150.28,0l.156-.52L152-1.2A2.4,2.4,0,0,0,153.5-3.068l2.86-15.132q.52-2.912,1.144-6.4t1.144-6.552a1.907,1.907,0,0,0-1.248-2.236l-1.04-.416.156-.52h12.532l-.1.52-1.508.572a2.562,2.562,0,0,0-1.612,1.924l-2.86,15.132q-.52,2.912-1.144,6.4t-1.2,6.552a2.015,2.015,0,0,0,1.2,2.184l1.2.52-.156.52Zm26,.78a6.172,6.172,0,0,1-2.6-.572q-.572,2.6-.988,4.68t-.728,3.952a1.766,1.766,0,0,0,1.456,2.184l1.3.416-.1.52H162.084l.1-.52.988-.26a2.869,2.869,0,0,0,2.184-2.34l5.876-28.028a2.38,2.38,0,0,0-1.456-2.86l-.988-.416.1-.572,9.62-2.808.52.416-1.092,5.46a18.331,18.331,0,0,1,4.654-4.186,9.393,9.393,0,0,1,4.914-1.638,5.134,5.134,0,0,1,3.692,1.508q1.56,1.508,1.56,5.46a17.384,17.384,0,0,1-.962,5.668,22.84,22.84,0,0,1-2.652,5.33,23.793,23.793,0,0,1-3.822,4.446,18.755,18.755,0,0,1-4.472,3.042A10.571,10.571,0,0,1,176.28.78Zm6.708-22.724a4.775,4.775,0,0,0-2.6.936,12.723,12.723,0,0,0-2.756,2.6L174.564-3.38a5.671,5.671,0,0,0,4,1.924q3.068,0,5.044-3.224a16.408,16.408,0,0,0,1.352-3.172,30.22,30.22,0,0,0,1.014-4.186,25.848,25.848,0,0,0,.39-4.394,8.02,8.02,0,0,0-.858-4.056A2.756,2.756,0,0,0,182.988-21.944ZM200.876.78a9.692,9.692,0,0,1-5.3-1.3,4.14,4.14,0,0,1-2.028-3.692,3.081,3.081,0,0,1,.884-2.184,3.005,3.005,0,0,1,2.288-.936q2.6,0,3.224,3.172l.312,1.456a6.658,6.658,0,0,0,.65,1.768,1.618,1.618,0,0,0,1.534.676,3.006,3.006,0,0,0,2.288-1.092,4.331,4.331,0,0,0,.988-3.016,4.961,4.961,0,0,0-.91-2.808,13.407,13.407,0,0,0-3.042-2.964,17.44,17.44,0,0,1-3.432-3.458,7.114,7.114,0,0,1-1.3-4.29,7.371,7.371,0,0,1,1.118-3.978,7.848,7.848,0,0,1,3.25-2.86,11.156,11.156,0,0,1,5.044-1.066,9.224,9.224,0,0,1,5.33,1.352,4.084,4.084,0,0,1,1.95,3.484,2.737,2.737,0,0,1-.676,1.9,2.585,2.585,0,0,1-2.028.754q-2.5,0-3.38-3.016l-.52-1.456a3.617,3.617,0,0,0-.624-1.456,1.443,1.443,0,0,0-1.144-.416,2.484,2.484,0,0,0-1.716.91,4.022,4.022,0,0,0-.884,2.886,5.649,5.649,0,0,0,1.118,3.406,15.789,15.789,0,0,0,3.354,3.2,14.145,14.145,0,0,1,3.354,3.328,6.911,6.911,0,0,1,1.066,3.9,6.614,6.614,0,0,1-1.248,3.9,8.6,8.6,0,0,1-3.64,2.834A14.415,14.415,0,0,1,200.876.78Zm19.448,0a4.587,4.587,0,0,1-3.042-1.066,3.933,3.933,0,0,1-1.274-3.2,14.345,14.345,0,0,1,.26-2.6q.26-1.4.572-2.756l2.288-10.244a2.406,2.406,0,0,0-1.4-2.964l-.988-.416.052-.572,9.828-2.808.468.416-3.64,15.912q-.312,1.3-.52,2.34a9.857,9.857,0,0,0-.208,1.924,2.184,2.184,0,0,0,.52,1.638,1.882,1.882,0,0,0,1.352.494,5.325,5.325,0,0,0,2.652-.858,19.874,19.874,0,0,0,3.38-2.678,6.167,6.167,0,0,1,.156-.676l1.768-8.372q.416-2.028.806-4.082t.754-4.134l6.552-1.924.572.468L237.12-6.5a13.7,13.7,0,0,0-.416,2.86q0,1.092.936,1.092a2.721,2.721,0,0,0,1.56-.6,17.488,17.488,0,0,0,2.028-1.794l.624.624a15.713,15.713,0,0,1-3.3,3.51A7.131,7.131,0,0,1,234,.78a3.545,3.545,0,0,1-2.678-1.118,4.454,4.454,0,0,1-1.066-3.2,10.655,10.655,0,0,1,.1-1.508A29.467,29.467,0,0,1,225.134-.78,9.191,9.191,0,0,1,220.324.78ZM250.64,0,244.3.364,243.88,0l4-19.136A2.232,2.232,0,0,0,246.428-22l-.936-.468.1-.52,9.672-2.86.468.468-1.092,5.616a26.077,26.077,0,0,1,5.408-4.394,10.182,10.182,0,0,1,5.148-1.638,3.892,3.892,0,0,1,2.756,1.014,4.1,4.1,0,0,1,1.092,3.146A8.469,8.469,0,0,1,269-20.7q-.052.468-.1.988a25.251,25.251,0,0,1,5.278-4.446,9.855,9.855,0,0,1,5.122-1.638,3.8,3.8,0,0,1,2.73,1.014,4.16,4.16,0,0,1,1.066,3.146,12.92,12.92,0,0,1-.208,2.262q-.208,1.17-.52,2.418l-2.7,11.128q-.208.832-.364,1.4a3.841,3.841,0,0,0-.156.988q0,1.092.884,1.092a3.2,3.2,0,0,0,1.742-.65,14.762,14.762,0,0,0,2.106-1.794l.52.52a13.2,13.2,0,0,1-1.924,2.314A10.689,10.689,0,0,1,279.682,0a7.963,7.963,0,0,1-3.562.78,3.943,3.943,0,0,1-2.652-.806,2.824,2.824,0,0,1-.936-2.262,10.419,10.419,0,0,1,.26-2.262q.26-1.17.624-2.418l2.132-8.788q.312-1.352.546-2.5a9.742,9.742,0,0,0,.234-1.872q0-1.82-1.664-1.82-2.392,0-6.032,3.588a.928.928,0,0,0-.078.234,1.461,1.461,0,0,0-.026.286l-1.456,6.76Q266.5-8.32,265.98-5.564T264.888,0L258.6.364,258.18,0l3.484-16.484q.208-1.04.364-1.95a9.553,9.553,0,0,0,.156-1.586q0-1.716-1.56-1.716-2.652,0-6.24,3.38l-1.612,7.28Q252.2-8.32,251.68-5.564T250.64,0Z" transform="translate(-1.144 34.32)" fill="#1f1f1f"/>
</svg>
